# xmcd
#
# Track frame offsets: 
#        150
#        12827
#        28262
#        46260
#        65294
#        78388
#        98631
#        114916
#        129928
#        149193
#        167956
#        180426
#
# Disc length: 2612 seconds
#
# Revision: 3
# Processed by: cddbd v1.5.2PL0 Copyright (c) Steve Scherf et al.
# Submitted via: ExactAudioCopy v1.0b1
#
DISCID=990a320c
DTITLE=Rodney Crowell - Keys To The Highway
DYEAR=1989
DGENRE=Country
TTITLE0=My Past Is Present
TTITLE1=If Looks Could Kill
TTITLE2=Soul Searchin'
TTITLE3=Many A Long and Lonsome Highway
TTITLE4=We Gotta Go On Meeting Like This
TTITLE5=The Faith Is Mine
TTITLE6=Tell Me The Truth
TTITLE7=Don't Let Your Feet Slow You Down
TTITLE8=Now That We're Alone
TTITLE9=Things I Wish I'd Said
TTITLE10=I Guess We've Been Together For Too Long
TTITLE11=You Been On My Mind
EXTD=
EXTT0=
EXTT1=
EXTT2=
EXTT3=
EXTT4=
EXTT5=
EXTT6=
EXTT7=
EXTT8=
EXTT9=
EXTT10=
EXTT11=
PLAYORDER=
